<?xml version="1.0" encoding="utf-8"?>
<svg fill="#bbb" height="20px" version="1.1" id="Capa_1" viewBox="0 0 471.701 471.701" xmlns="http://www.w3.org/2000/svg">
  <defs/>
  <g>
    <path d="M433.601,67.001c-24.7-24.7-57.4-38.2-92.3-38.2s-67.7,13.6-92.4,38.3l-12.9,12.9l-13.1-13.1&#10;&#9;&#9;c-24.7-24.7-57.6-38.4-92.5-38.4c-34.8,0-67.6,13.6-92.2,38.2c-24.7,24.7-38.3,57.5-38.2,92.4c0,34.9,13.7,67.6,38.4,92.3&#10;&#9;&#9;l187.8,187.8c2.6,2.6,6.1,4,9.5,4c3.4,0,6.9-1.3,9.5-3.9l188.2-187.5c24.7-24.7,38.3-57.5,38.3-92.4&#10;&#9;&#9;C471.801,124.501,458.301,91.701,433.601,67.001z M414.401,232.701l-178.7,178l-178.3-178.3c-19.6-19.6-30.4-45.6-30.4-73.3&#10;&#9;&#9;s10.7-53.7,30.3-73.2c19.5-19.5,45.5-30.3,73.1-30.3c27.7,0,53.8,10.8,73.4,30.4l22.6,22.6c5.3,5.3,13.8,5.3,19.1,0l22.4-22.4&#10;&#9;&#9;c19.6-19.6,45.7-30.4,73.3-30.4c27.6,0,53.6,10.8,73.2,30.3c19.6,19.6,30.3,45.6,30.3,73.3&#10;&#9;&#9;C444.801,187.101,434.001,213.101,414.401,232.701z" style="fill: rgb(255, 0, 0);"/>
  </g>
  <path stroke="rgb(255,0,0)" d="M 203.198 71.707 C 210.168 70.552 217.945 71.392 225.176 73.98 C 231.438 76.221 237.878 84.339 243.907 87.683 C 244.539 86.47 245.296 85.222 246.169 83.909 C 249.87 78.344 257.944 70.474 263.979 65.341 C 269.456 60.682 274.944 56.91 280.653 53.972 C 286.074 51.183 291.029 48.983 297.326 47.909 C 304.461 46.693 313.074 46.705 321.578 47.909 C 330.924 49.233 340.634 54.7 351.135 56.246 C 362.278 57.887 378.214 55.375 386.755 57.004 C 392.622 58.123 396.077 59.956 399.639 62.309 C 402.909 64.469 406.068 68.455 407.597 70.267 C 408.464 71.295 408.485 71.643 409.112 72.54 C 409.921 73.698 411.287 75.813 412.144 76.709 C 412.718 77.309 412.713 76.664 413.66 77.846 C 417.555 82.706 442.468 118.29 447.764 133.17 C 451.428 143.464 450.96 148.968 450.038 158.938 C 448.883 171.424 444.558 190.228 438.669 202.895 C 433.249 214.556 420.741 228.88 417.07 232.831 C 415.68 234.327 415.601 233.477 414.418 234.726 C 412.064 237.21 408.554 244.637 403.807 249.504 C 398.181 255.272 388.95 259.693 381.829 266.556 C 374.003 274.1 362.13 290.404 359.093 293.461 C 358.149 294.41 358.302 293.816 357.577 294.598 C 356.253 296.025 352.611 301.483 350.606 304.273 C 351.073 306.03 351.238 307.932 350.756 309.9 C 350.478 311.037 349.969 312.337 349.277 313.755 C 349.501 315.361 349.553 316.958 349.392 318.395 C 348.911 322.67 345.172 328.68 343.329 330.9 C 342.258 332.189 341.025 332.227 340.297 332.794 C 339.769 333.207 339.573 333.403 339.161 333.931 C 338.593 334.659 339.233 334.975 337.266 336.963 C 329.546 344.766 258.53 400.252 252.384 405.55 C 251.247 406.531 251.855 406.041 251.247 406.687 C 249.975 408.041 247.522 412.611 244.426 414.266 C 240.929 416.136 234.458 417.064 230.785 416.54 C 227.813 416.115 225.385 414.378 223.585 412.75 C 221.959 411.28 221.741 409.15 220.174 407.445 C 218.354 405.465 215.215 405.786 212.975 401.761 C 211.511 399.131 209.766 393.931 208.088 387.816 C 201.756 382.936 195.47 377.066 192.057 373.568 C 188.002 369.412 188.743 366.639 184.857 362.579 C 179.243 356.713 162.326 345.993 158.711 342.495 C 157.278 341.109 157.853 340.911 156.816 339.843 C 155.177 338.155 150.244 334.912 148.858 333.401 C 148.108 332.583 148.391 332.19 147.722 331.506 C 146.724 330.486 144.1 329.317 142.795 328.096 C 141.651 327.024 141.42 326.04 140.143 324.685 C 138.305 322.736 135.345 320.919 132.185 317.485 C 127.579 312.481 117.921 298.571 115.133 295.886 C 114.116 294.907 113.828 295.302 113.238 294.749 C 112.549 294.103 112.474 293.264 111.344 292.097 C 109.304 289.989 102.072 284.721 100.354 283.002 C 99.588 282.236 100.269 282.628 99.218 281.486 C 94.799 276.688 60.894 245.492 50.335 233.361 C 43.536 225.551 39.022 217.198 37.072 214.793 C 36.397 213.961 36.683 214.545 35.935 213.657 C 33.448 210.702 19.886 197.527 16.23 187.889 C 12.598 178.314 12.793 163.813 13.957 156.058 C 14.775 150.604 17.929 149.27 19.262 143.932 C 21.104 136.555 19.063 123.415 22.293 114.375 C 25.516 105.357 33.058 95.603 38.588 89.744 C 42.947 85.125 49.267 82.658 51.85 80.271 C 53.37 78.867 52.845 78.655 54.503 76.86 C 58.129 72.935 68.618 60.464 76.481 55.64 C 83.617 51.262 92.358 49.221 99.218 48.061 C 105.041 47.076 109.395 47.332 115.133 48.061 C 116.943 48.291 118.842 48.558 120.791 48.892 C 121.04 48.54 121.301 48.21 121.575 47.909 C 123.783 45.479 127.086 44.385 131.048 43.362 C 136.071 42.065 143.916 41.956 149.995 41.846 C 155.766 41.742 162.231 41.238 166.668 42.604 C 170.341 43.736 172.363 45.029 175.384 48.288 C 179.81 53.064 183.111 64.164 189.405 71.404 C 190.535 72.704 191.844 73.979 193.272 75.234 C 196.575 73.627 200.131 72.215 203.198 71.707 Z" style="stroke: rgb(129, 151, 57); fill: rgb(255, 0, 0); stroke-width: 0px;"/>
</svg>